<svg width="303" height="23" viewBox="0 0 303 23" fill="none" xmlns="http://www.w3.org/2000/svg">
<path d="M8.4 7.15C8.4 10.15 22.95 7.3 22.95 15.7C22.95 19.3 19.65 22.6 12 22.6C4.2 22.6 0.9 19.3 0.9 16C0.9 15.25 1.35 14.8 2.1 14.8H5.85C6.75 14.8 7.23 15.28 7.65 16C8.1 16.75 9 17.65 12 17.65C15 17.65 16.05 16.6 16.05 15.7C16.05 12.7 1.5 15.55 1.5 7.15C1.5 3.55 4.65 0.399999 12 0.399999C18.9 0.399999 22.2 3.7 22.2 6.7C22.2 7.45 21.75 7.9 21 7.9H17.25C16.35 7.9 15.87 7.45 15.45 6.7C15.18 6.25 14.25 5.35 12 5.35C9.3 5.35 8.4 6.25 8.4 7.15ZM42.3277 22H38.6977C37.7977 22 37.2277 21.4 37.0477 20.95L32.9977 11.05H32.6977V20.95C32.6977 21.55 32.2477 22 31.6477 22H27.1477C26.5477 22 26.0977 21.55 26.0977 20.95V2.05C26.0977 1.45 26.5477 0.999999 27.1477 0.999999H33.4477C34.3477 0.999999 34.9177 1.6 35.0977 2.05L40.3477 14.8H40.6477L45.8977 2.05C46.0777 1.6 46.6477 0.999999 47.5477 0.999999H53.8477C54.4477 0.999999 54.8977 1.45 54.8977 2.05V20.95C54.8977 21.55 54.4477 22 53.8477 22H49.3477C48.7477 22 48.2977 21.55 48.2977 20.95V11.05H47.9977L43.9777 20.95C43.7977 21.4 43.2277 22 42.3277 22ZM75.6982 20.95L74.6482 18.25H65.1982L64.1482 20.95C63.9082 21.55 63.3982 22 62.7982 22H57.9982C57.3982 22 56.9782 21.55 57.2482 20.95L65.6482 2.05C65.9182 1.45 66.3982 0.999999 66.9982 0.999999H73.1482C73.7482 0.999999 74.2282 1.42 74.4982 2.02L82.8982 20.95C83.1682 21.55 82.7482 22 82.1482 22H77.0482C76.4482 22 75.9382 21.55 75.6982 20.95ZM69.8482 7.3L67.2982 13.3H72.5482L70.1482 7.3H69.8482ZM102.948 12.7V13C102.948 13 104.298 13.6 105.798 16.3L108.348 20.95C108.588 21.4 108.348 22 107.598 22H102.948C101.748 22 101.328 21.55 100.998 20.95L98.448 16.3C97.968 15.4 97.398 14.8 95.748 14.8H91.848V20.95C91.848 21.55 91.398 22 90.798 22H86.298C85.698 22 85.248 21.55 85.248 20.95V2.05C85.248 1.45 85.698 0.999999 86.298 0.999999H97.248C103.848 0.999999 106.998 4.15 106.998 7.9C106.998 11.8 102.948 12.7 102.948 12.7ZM91.848 10H97.248C99.198 10 100.098 9.1 100.098 7.9C100.098 6.7 99.198 5.8 97.248 5.8H91.848V10ZM130.646 2.05V5.05C130.646 5.65 130.196 6.1 129.596 6.1H123.296V20.95C123.296 21.55 122.846 22 122.246 22H117.746C117.146 22 116.696 21.55 116.696 20.95V6.1H110.396C109.796 6.1 109.346 5.65 109.346 5.05V2.05C109.346 1.45 109.796 0.999999 110.396 0.999999H129.596C130.196 0.999999 130.646 1.45 130.646 2.05ZM146.014 0.999999H151.414C152.164 0.999999 152.614 1.45 152.764 2.05L155.614 13.9H155.914L159.064 2.05C159.214 1.45 159.664 0.999999 160.414 0.999999H165.214C165.664 0.999999 166.144 1.45 165.964 2.05L160.714 20.95C160.534 21.55 160.114 22 159.364 22H153.364C152.614 22 152.164 21.55 152.014 20.95L148.864 9.4H148.564L145.414 20.95C145.264 21.55 144.814 22 144.064 22H138.064C137.314 22 136.894 21.55 136.714 20.95L131.464 2.05C131.284 1.45 131.764 0.999999 132.214 0.999999H137.014C137.764 0.999999 138.214 1.45 138.364 2.05L141.514 13.9H141.814L144.664 2.05C144.814 1.45 145.264 0.999999 146.014 0.999999ZM186.268 12.7V13C186.268 13 187.618 13.6 189.118 16.3L191.668 20.95C191.908 21.4 191.668 22 190.918 22H186.268C185.068 22 184.648 21.55 184.318 20.95L181.768 16.3C181.288 15.4 180.718 14.8 179.068 14.8H175.168V20.95C175.168 21.55 174.718 22 174.118 22H169.618C169.018 22 168.568 21.55 168.568 20.95V2.05C168.568 1.45 169.018 0.999999 169.618 0.999999H180.568C187.168 0.999999 190.318 4.15 190.318 7.9C190.318 11.8 186.268 12.7 186.268 12.7ZM175.168 10H180.568C182.518 10 183.418 9.1 183.418 7.9C183.418 6.7 182.518 5.8 180.568 5.8H175.168V10ZM207.667 2.05V5.05C207.667 5.65 207.217 6.1 206.617 6.1H203.767V16.9H206.617C207.217 16.9 207.667 17.35 207.667 17.95V20.95C207.667 21.55 207.217 22 206.617 22H194.317C193.717 22 193.267 21.55 193.267 20.95V17.95C193.267 17.35 193.717 16.9 194.317 16.9H197.167V6.1H194.317C193.717 6.1 193.267 5.65 193.267 5.05V2.05C193.267 1.45 193.717 0.999999 194.317 0.999999H206.617C207.217 0.999999 207.667 1.45 207.667 2.05ZM230.461 2.05V5.05C230.461 5.65 230.011 6.1 229.411 6.1H223.111V20.95C223.111 21.55 222.661 22 222.061 22H217.561C216.961 22 216.511 21.55 216.511 20.95V6.1H210.211C209.611 6.1 209.161 5.65 209.161 5.05V2.05C209.161 1.45 209.611 0.999999 210.211 0.999999H229.411C230.011 0.999999 230.461 1.45 230.461 2.05ZM253.254 2.05V5.05C253.254 5.65 252.804 6.1 252.204 6.1H245.904V20.95C245.904 21.55 245.454 22 244.854 22H240.354C239.754 22 239.304 21.55 239.304 20.95V6.1H233.004C232.404 6.1 231.954 5.65 231.954 5.05V2.05C231.954 1.45 232.404 0.999999 233.004 0.999999H252.204C252.804 0.999999 253.254 1.45 253.254 2.05ZM276.361 2.05V5.05C276.361 5.65 275.911 6.1 275.311 6.1H262.561V8.8H272.011C272.611 8.8 273.061 9.25 273.061 9.85V12.85C273.061 13.45 272.611 13.9 272.011 13.9H262.561V16.9H275.311C275.911 16.9 276.361 17.35 276.361 17.95V20.95C276.361 21.55 275.911 22 275.311 22H257.011C256.411 22 255.961 21.55 255.961 20.95V2.05C255.961 1.45 256.411 0.999999 257.011 0.999999H275.311C275.911 0.999999 276.361 1.45 276.361 2.05ZM297.362 12.7V13C297.362 13 298.712 13.6 300.212 16.3L302.762 20.95C303.002 21.4 302.762 22 302.012 22H297.362C296.162 22 295.742 21.55 295.412 20.95L292.862 16.3C292.382 15.4 291.812 14.8 290.162 14.8H286.262V20.95C286.262 21.55 285.812 22 285.212 22H280.712C280.112 22 279.662 21.55 279.662 20.95V2.05C279.662 1.45 280.112 0.999999 280.712 0.999999H291.662C298.262 0.999999 301.412 4.15 301.412 7.9C301.412 11.8 297.362 12.7 297.362 12.7ZM286.262 10H291.662C293.612 10 294.512 9.1 294.512 7.9C294.512 6.7 293.612 5.8 291.662 5.8H286.262V10Z" fill="#01245F"/>
</svg>
